<svg version="1.2" baseProfile="tiny-ps" xmlns="http://www.w3.org/2000/svg" viewBox="0 0 540 658" width="540" height="658">
	<style>
		.shp0 { fill: #5d5194 } 
	</style>
	<path fill-rule="evenodd" class="shp0" d="M538.74 143.74C538.74 596.19 547.51 596.56 518.17 596.56C423.21 596.56 350.33 587.1 282.56 654.87C282.45 654.87 278.43 657.27 277.48 657.27L277.48 657.34C239.02 657.34 220.55 596.56 122.09 596.56C29.67 596.56 3.6 603.43 3.6 575.97C3.6 69.51 -22.41 123.16 82.57 123.16C154.33 -41.11 387.99 -41.18 459.78 123.16C497.86 123.16 538.74 114.66 538.74 143.74ZM131.21 123.37C167.5 124.95 197.86 133.78 228.37 149.03C285.03 178.63 253.47 189.17 311.32 150.53C346.38 132.24 378.38 124.92 411.07 123.37C418.72 123.37 367.11 40.83 271.17 40.83C175.27 40.83 123.71 123.37 131.21 123.37ZM243.25 207.89C190.4 155.04 91.77 164.32 44.77 164.32L44.77 555.39L122.09 555.39C219.26 555.39 234.44 600.77 226.3 572.61C191.5 457.78 174.15 300.06 243.25 207.89ZM485.44 389.36C450.93 423.87 340.92 493.87 302.67 587.63C367.92 549.19 418.45 555.39 497.59 555.39C497.59 333.88 502.79 368.35 485.44 389.36ZM497.59 164.32C444.46 164.32 330.36 154.14 277.97 229.98C232.55 296.97 230.81 391.44 244.21 471.55C271.24 326.58 378 253.65 383.28 250.08L406.06 284.39C400.78 287.89 277.9 372.75 279.28 542.15C366.47 390.48 497.59 390.87 497.59 241.65L497.59 164.32Z" />
</svg>