<?xml version="1.0" encoding="UTF-8"?>
<svg width="113.17" height="103.99" version="1.2" viewBox="0 0 113.17 103.99" xmlns="http://www.w3.org/2000/svg">
 <style>tspan { white-space:pre }
		.shp0 { fill: none;stroke: #2a5082;stroke-width: 2 } 
		.shp1 { fill: #f0f220 } 
		.shp2 { fill: none;stroke: #4c4083;stroke-width: 2 } 
		.shp3 { fill: #ffffff } 
		.shp4 { fill: #ffffff;stroke: #4c4083;stroke-width: 2 } 
		.shp5 { fill: none;stroke: #bcc0c4;stroke-width: 2 }</style>
 <g transform="translate(-542.83,-559.83)">
  <path id="Shape" class="shp0" d="m549.34 662.82h91.66"/>
  <path class="shp0" d="m642.45 662.82h7.33"/>
  <path class="shp0" d="m652.33 662.82h3.67"/>
  <path class="shp0" d="m542.83 662.82h3.67"/>
  <g id="Group">
   <path class="shp1" d="m577.71 641.85c-3.17 0-5.74-2.57-5.74-5.74v-50.59c-11.91 6.03-20.09 18.38-20.09 32.66 0 20.21 16.39 36.59 36.6 36.59 11.17 0 21.18-5.02 27.89-12.92z"/>
   <path class="shp2" d="m604.98 641.85h-27.27c-3.17 0-5.74-2.57-5.74-5.74v-63.14c0-3.17 2.57-5.74 5.74-5.74h47.36c3.17 0 5.74 2.57 5.74 5.74v37.31"/>
   <path class="shp2" d="m599.24 630.37h-21.53v-51.66h47.36v31.57"/>
   <path class="shp3" d="m632.25 617.46h-2.87c0-1.62-1.53-2.87-2.87-2.87h-2.87c-0.55-0.86-1.97-1.44-2.87-1.44h-2.87v-10.04c0-1.59-1.29-2.87-2.87-2.87-1.59 0-2.87 1.28-2.87 2.87v21.52l-1.92 1.84-3.75-5.81c-2.3-3.16-5.81-1.39-5.81 0 0 0 4.35 13.89 4.97 14.87 1.01 1.57 5.07 5.1 5.07 6.32v5.75h21.53v-4.31c0-1.94 2.87-4.27 2.87-7.18v-15.78c0-1.62-1.53-2.87-2.87-2.87z"/>
   <path class="shp2" d="m610.72 647.6v-5.75c0-1.22-4.06-4.75-5.07-6.32-0.62-0.98-4.97-14.87-4.97-14.87 0-1.39 3.51-3.16 5.81 0l3.75 5.81 1.92-1.84v-21.52c0-1.59 1.28-2.87 2.87-2.87 1.58 0 2.87 1.28 2.87 2.87v18.65-8.61h2.87c0.9 0 2.32 0.57 2.87 1.44h2.87c1.34 0 2.87 1.25 2.87 2.87h2.87c1.34 0 2.87 1.25 2.87 2.87v15.78c0 2.91-2.87 5.24-2.87 7.18v4.31"/>
   <path class="shp2" d="m623.64 614.59v7.17"/>
   <path class="shp2" d="m629.38 617.46v5.74"/>
   <path id="Rectangle-path" class="shp1" d="m607.85 646.16h27.27v16.18h-27.27z"/>
   <path class="shp2" d="m635.12 662.34v-16.18h-27.27v16.18"/>
   <path class="shp2" d="m596.37 572.97h11.48"/>
   <path class="shp4" d="m600.7 598.8h-17.22l-0.03-14.35h17.23z"/>
   <path class="shp2" d="m604.98 587.32h15.79"/>
   <path class="shp2" d="m604.98 593.06h11.48"/>
   <path class="shp2" d="m582.02 604.54h20.09"/>
   <path class="shp2" d="m582.02 610.28h20.09"/>
   <path class="shp2" d="m582.02 616.02h11.48"/>
  </g>
  <path class="shp5" d="m555.84 575.5h-12.83"/>
  <path class="shp5" d="m559.5 575.5h3.67"/>
  <path class="shp5" d="m605.33 560.83h3.67"/>
  <path class="shp5" d="m612.66 560.83h3.67"/>
 </g>
</svg>
