<?xml version="1.0" encoding="UTF-8"?>
<svg width="117.72" height="115.35" version="1.2" viewBox="0 0 117.72 115.35" xmlns="http://www.w3.org/2000/svg">
 <style>tspan { white-space:pre }
		.shp0 { fill: #e8e8e8 } 
		.shp1 { fill: #f0f220;stroke: #4c4083 } 
		.shp2 { fill: #ffffff;stroke: #4c4083;stroke-width: 2 } 
		.shp3 { fill: none;stroke: #4c4083;stroke-width: 2 } 
		.shp4 { fill: none;stroke: #bcc0c4;stroke-width: 2 }</style>
 <g transform="translate(-596.78,-599.72)">
  <path id="Oval" class="shp0" d="m651.14 709.34c-23.13 0-41.83-18.7-41.83-41.84s18.7-41.84 41.83-41.84c23.14 0 41.84 18.7 41.84 41.84s-18.7 41.84-41.84 41.84z"/>
  <path id="Shape" class="shp1" d="m654.14 685.54c-1.22-3.5-4.52-5.84-8.23-5.84h-12.2v-12.2l3.49 3.49h12.2c7.97 0 6.97-8.72 6.97-8.72h-12.2l-12.2-12.2h-6.98c-3.85 0-6.97 3.12-6.97 6.97v26.15c0 5.77 4.68 10.46 10.46 10.46h15.69l10.46 20.92h9.67z"/>
  <path class="shp2" d="m630.22 644.67c-4.86 0-8.71-3.98-8.71-8.89v-2.97c0-4.91 3.85-8.89 8.71-8.89 4.87 0 8.72 3.98 8.72 8.89v2.97c0 4.91-3.85 8.89-8.72 8.89z"/>
  <path class="shp3" d="m633.71 670.99h61.01"/>
  <path class="shp3" d="m659.86 664.01h10.46v6.98"/>
  <path class="shp3" d="m677.29 670.99v-6.98h10.46v-20.92h-8.72"/>
  <path class="shp2" d="m677.29 657.04h-5.23v-36.61h5.23c1.92 0 3.49 1.56 3.49 3.49v29.63c0 1.93-1.57 3.49-3.49 3.49z"/>
  <path class="shp3" d="m626.74 704.11v10.46"/>
  <path class="shp3" d="m654.63 714.57-10.46-20.92h-15.69c-5.78 0-10.46-4.69-10.46-10.46v-26.15c0-3.85 3.12-6.97 6.97-6.97h6.98l12.2 12.2h12.2s1 8.72-6.97 8.72h-12.21l-10.45-10.46"/>
  <path class="shp3" d="m633.71 667.5v12.2h12.2c3.71 0 7.01 2.34 8.23 5.84l10.16 29.03"/>
  <path class="shp3" d="m611.05 653.56v33.12c0 7.7 6.24 13.94 13.94 13.94h15.69"/>
  <path class="shp3" d="m611.05 679.7h13.94l5.23 6.98"/>
  <path class="shp3" d="m698.21 670.99h3.48"/>
  <path class="shp3" d="m607.84 713.82h91.66"/>
  <path class="shp3" d="m700.95 713.82h7.33"/>
  <path class="shp3" d="m710.83 713.82h3.67"/>
  <path class="shp3" d="m601.33 713.82h3.67"/>
  <path class="shp4" d="m698.78 625.85v8.12"/>
  <path class="shp4" d="m702.84 629.91h-8.12"/>
  <path class="shp4" d="m706.9 615.02c-2.24 0-4.06-1.82-4.06-4.06 0-2.25 1.82-4.06 4.06-4.06 2.25 0 4.07 1.81 4.07 4.06 0 2.24-1.82 4.06-4.07 4.06z"/>
  <path class="shp4" d="m655.44 610.65h-12.65c-0.94-1.83-3.15-3.72-5.72-3.72-0.82 0-1.59 0.19-2.31 0.48-1.43-3.82-5.11-6.69-9.43-6.69-5.56 0-10.07 6.27-10.08 9.93h-14.81"/>
  <path class="shp4" d="m609.61 625.32h-12.83"/>
  <path class="shp4" d="m613.27 625.32h3.67"/>
  <path class="shp4" d="m659.1 610.65h3.67"/>
  <path class="shp4" d="m666.44 610.65h3.66"/>
 </g>
</svg>
